Coordinates
nRows=6
nColumns=38

# SIMM Motion File Header:
name Coordinates
datacolumns 38
datarows 6
otherdata 1
range 1.51349999999999980000 1.51850000000000000000

Units are S.I. units (second, meters, Newtons, ...)
Angles are in degrees.

endheader
time	pelvis_tilt	pelvis_list	pelvis_rotation	pelvis_tx	pelvis_ty	pelvis_tz	hip_flexion_r	hip_adduction_r	hip_rotation_r	knee_angle_r	ankle_angle_r	subtalar_angle_r	mtp_angle_r	hip_flexion_l	hip_adduction_l	hip_rotation_l	knee_angle_l	ankle_angle_l	subtalar_angle_l	mtp_angle_l	lumbar_extension	lumbar_bending	lumbar_rotation	arm_flex_r	arm_add_r	arm_rot_r	elbow_flex_r	pro_sup_r	wrist_flex_r	wrist_dev_r	arm_flex_l	arm_add_l	arm_rot_l	elbow_flex_l	pro_sup_l	wrist_flex_l	wrist_dev_l
      1.51349999999999980000	     -3.82521395385735510000	     -4.61301073371704540000	     -1.76099394069377910000	      1.18315745859960230000	      0.93388567101485787000	     -0.33486554503425792000	     10.97924168990737400000	      8.46836629511395600000	      0.17081172976900447000	    -50.55190203173167900000	     26.49346827398929300000	     -0.00000000000002823624	      0.00000000000004554714	     25.77783134682157500000	      2.12451867344049730000	     -0.81966412551422385000	   -106.42523981413886000000	      3.84729379451809320000	      0.00000000000000696007	      0.00000000000001490735	    -16.44578610784406800000	     10.75840292073604400000	     12.17495940517527200000	    -15.32376360194330500000	    -15.91517666585676600000	     -8.67346988038588580000	    128.00153159906213000000	     96.39421169303213300000	     -0.00000000000000036311	      0.00000000000000016962	    -30.66898646573779900000	    -17.12559385745133900000	      3.24846653580869170000	    106.10703682761527000000	     92.90525531460889400000	     -0.00000000000000002912	      0.00000000000000098916
      1.51450000000000000000	     -3.85781211283127720000	     -4.53106476505298520000	     -1.71910188670687300000	      1.18340084977030280000	      0.93435045496224811000	     -0.33483665634452736000	     10.60597228872461000000	      8.36831799723261400000	      0.22706650591816452000	    -50.28252873952966700000	     26.29250701315918800000	     -0.00000000000002863384	      0.00000000000004603973	     26.11152133699315700000	      2.22438556082315350000	     -0.78903155127978497000	   -106.21950360552496000000	      4.00406451199483900000	      0.00000000000000700009	      0.00000000000001519878	    -16.36131782279990800000	     10.65591003531137900000	     12.26694516263627900000	    -15.25642293211796200000	    -15.84516810220599200000	     -8.68536835795580410000	    128.23471894409292000000	     96.50220185702541200000	     -0.00000000000000037544	      0.00000000000000014428	    -30.95307145625967800000	    -17.21652898676094200000	      3.16003042250650520000	    106.32139006246990000000	     92.85182002587825400000	     -0.00000000000000003179	      0.00000000000000101632
      1.51549999999999980000	     -3.88992689646136420000	     -4.44825879780244820000	     -1.67828907777291160000	      1.18365007770899760000	      0.93482417931927919000	     -0.33480704605373479000	     10.23094343713777700000	      8.26694259014610820000	      0.28344499426581637000	    -50.00829335249533600000	     26.08290943368442400000	     -0.00000000000002904960	      0.00000000000004657585	     26.44121667981393000000	      2.32438705677485040000	     -0.76131284304827862000	   -106.00674203443231000000	      4.16377351161014800000	      0.00000000000000703954	      0.00000000000001548561	    -16.27738386234078400000	     10.55198567386513800000	     12.35779473798220000000	    -15.18857005761812000000	    -15.77801848055246300000	     -8.69237366064522550000	    128.46648311639689000000	     96.61219746448615800000	     -0.00000000000000038741	      0.00000000000000011848	    -31.23899975949680700000	    -17.30582769543723000000	      3.06853639761862280000	    106.53570213939399000000	     92.80037825554900600000	     -0.00000000000000003437	      0.00000000000000103799
      1.51650000000000000000	     -3.92153308960623460000	     -4.36459098468136020000	     -1.63851127060733260000	      1.18390505236552610000	      0.93530666846584831000	     -0.33477678938414268000	      9.85420058048985940000	      8.16420888163400350000	      0.33987063732555928000	    -49.72927338278761100000	     25.86467137589347900000	     -0.00000000000002947531	      0.00000000000004717425	     26.76689328966812200000	      2.42450467719882030000	     -0.73647714328114522000	   -105.78705165382262000000	      4.32652562483133350000	      0.00000000000000708022	      0.00000000000001577862	    -16.19402706782084100000	     10.44664415087190100000	     12.44745727441378400000	    -15.12022113874213300000	    -15.71370728916700100000	     -8.69452886840678830000	    128.69678768058566000000	     96.72420328768704700000	     -0.00000000000000039967	      0.00000000000000009151	    -31.52672911163495300000	    -17.39342071995178400000	      2.97397871527815290000	    106.74988131246543000000	     92.75084800199702800000	     -0.00000000000000003649	      0.00000000000000105928
      1.51749999999999980000	     -3.95260411615233660000	     -4.28006030222544890000	     -1.59972721591308020000	      1.18416568684480120000	      0.93579774556495543000	     -0.33474595869452856000	      9.47578544959775830000	      8.06008869981111250000	      0.39626960639596165000	    -49.44554463902381500000	     25.63779093008997000000	     -0.00000000000002990369	      0.00000000000004784459	     27.08852421241498500000	      2.52472254601206060000	     -0.71449214441815934000	   -105.56052233842532000000	      4.49240987977476090000	      0.00000000000000712393	      0.00000000000001606833	    -16.11129149723115400000	     10.33989975833170200000	     12.53588668361984700000	    -15.05139474036799100000	    -15.65221404096564400000	     -8.69188062155803820000	    128.92559975512893000000	     96.83820926211198800000	     -0.00000000000000041333	      0.00000000000000006435	    -31.81621665645478800000	    -17.47923947038443200000	      2.87635654255421790000	    106.96384326407386000000	     92.70314081067427000000	     -0.00000000000000004016	      0.00000000000000108720
      1.51850000000000000000	     -3.98311223011374430000	     -4.19466574387612920000	     -1.56189871957364330000	      1.18443189774387060000	      0.93629723233320694000	     -0.33471462348005160000	      9.09573622278822570000	      7.95455606535209370000	      0.45257099619358143000	    -49.15718134676006900000	     25.40226910819484400000	     -0.00000000000003037275	      0.00000000000004854258	     27.40607972723697500000	      2.62502833001591580000	     -0.69532436011139953000	   -105.32723663845947000000	      4.66149758650214090000	      0.00000000000000716680	      0.00000000000001637581	    -16.02922205292929500000	     10.23176587795121900000	     12.62304143071153300000	    -14.98211164549001300000	    -15.59351835196407300000	     -8.68447853582238420000	    129.15288938939472000000	     96.95418998004311100000	     -0.00000000000000042764	      0.00000000000000003808	    -32.10741896429113500000	    -17.56321618753822000000	      2.77567389161624640000	    107.17751082379681000000	     92.65716255932466100000	     -0.00000000000000004431	      0.00000000000000113108
